<svg xmlns="http://www.w3.org/2000/svg" viewBox="0 0 1200 800"><rect width="1200" height="800" fill="#eef5ff"/><path d="M0 620 C220 560 430 595 680 570 S980 535 1200 590 V800 H0Z" fill="#dbe4ed"/><g fill="#9bb7d4" opacity=".45"><path d="M210 250 l35 50 l-50 20 l-30 -50z"/><path d="M960 210 l48 38 l-38 42 l-45 -38z"/><path d="M640 160 l25 55 l-58 18 l-20 -53z"/></g><g transform="translate(180 385)" fill="#f6fbff" stroke="#6f96bd" stroke-width="8" opacity=".88"><ellipse cx="135" cy="160" rx="92" ry="110"/><ellipse cx="86" cy="68" rx="30" ry="88" transform="rotate(-16 86 68)"/><ellipse cx="156" cy="66" rx="30" ry="90" transform="rotate(10 156 66)"/><circle cx="125" cy="112" r="55"/></g></svg>
